<?xml version="1.0" encoding="UTF-8" standalone="no" ?>
<!DOCTYPE svg PUBLIC "-//W3C//DTD SVG 1.1//EN" "http://www.w3.org/Graphics/SVG/1.1/DTD/svg11.dtd">
<svg xmlns="http://www.w3.org/2000/svg" xmlns:xlink="http://www.w3.org/1999/xlink" version="1.1" width="1080" height="1080" viewBox="0 0 1080 1080" xml:space="preserve">
<desc>Created with Fabric.js 5.2.4</desc>
<defs>
</defs>
<g transform="matrix(1 0 0 1 540 540)" id="2981b71c-66b4-44d2-9176-16ea824e08bb"  >
<rect style="stroke: none; stroke-width: 1; stroke-dasharray: none; stroke-linecap: butt; stroke-dashoffset: 0; stroke-linejoin: miter; stroke-miterlimit: 4; fill: rgb(255,255,255); fill-rule: nonzero; opacity: 1; visibility: hidden;" vector-effect="non-scaling-stroke"  x="-540" y="-540" rx="0" ry="0" width="1080" height="1080" />
</g>
<g transform="matrix(1 0 0 1 540 540)" id="16ab4650-9d3d-4e3d-a913-fff518cdd886"  >
</g>
<g transform="matrix(33.33 0 0 33.33 540 686.03)"  >
<path style="stroke: none; stroke-width: 1; stroke-dasharray: none; stroke-linecap: butt; stroke-dashoffset: 0; stroke-linejoin: miter; stroke-miterlimit: 4; fill: rgb(173,189,227); fill-rule: nonzero; opacity: 0.5;" vector-effect="non-scaling-stroke"  transform=" translate(-12, -15.88)" d="M 12 16.0678 L 8.22855 19.9727 C 7.68843 20.532 7.41837 20.8116 7.18967 20.9084 C 6.66852 21.1289 6.09042 20.9402 5.81628 20.4601 C 5.69597 20.2494 5.65848 19.8694 5.5835 19.1094 C 5.54117 18.6803 5.52 18.4657 5.45575 18.286 C 5.31191 17.8837 5.00966 17.5708 4.6211 17.4218 C 4.44755 17.3553 4.24033 17.3334 3.82592 17.2895 L 3.82589 17.2895 C 3.09187 17.2119 2.72486 17.1731 2.52138 17.0485 C 2.05772 16.7647 1.87548 16.1661 2.08843 15.6265 C 2.18188 15.3897 2.45194 15.1101 2.99206 14.5509 L 5.45575 11.9999 L 6.69396 10.7617 L 12 16.0678 L 17.306 10.7617 L 18.5442 11.9999 L 21.0079 14.5509 C 21.5481 15.1101 21.8181 15.3897 21.9116 15.6265 C 22.1245 16.1661 21.9423 16.7647 21.4786 17.0485 C 21.2751 17.1731 20.9081 17.2119 20.1741 17.2895 C 19.7597 17.3334 19.5525 17.3553 19.3789 17.4218 C 18.9903 17.5708 18.6881 17.8837 18.5442 18.286 C 18.48 18.4657 18.4588 18.6803 18.4165 19.1094 L 18.4165 19.1094 C 18.3415 19.8694 18.304 20.2494 18.1837 20.4601 C 17.9096 20.9402 17.3315 21.1289 16.8103 20.9084 C 16.5816 20.8116 16.3116 20.532 15.7715 19.9727 L 12 16.0678 Z" stroke-linecap="round" />
</g>
<g transform="matrix(33.33 0 0 33.33 540 456.67)"  >
<path style="stroke: none; stroke-width: 1; stroke-dasharray: none; stroke-linecap: butt; stroke-dashoffset: 0; stroke-linejoin: miter; stroke-miterlimit: 4; fill: rgb(2,61,107); fill-rule: evenodd; opacity: 1;" vector-effect="non-scaling-stroke"  transform=" translate(-12, -9)" d="M 12 16 C 15.866 16 19 12.866 19 9 C 19 5.13401 15.866 2 12 2 C 8.13401 2 5 5.13401 5 9 C 5 12.866 8.13401 16 12 16 Z M 12 6 C 11.7159 6 11.5259 6.34084 11.1459 7.02251 L 11.0476 7.19887 C 10.9397 7.39258 10.8857 7.48944 10.8015 7.55334 C 10.7173 7.61725 10.6125 7.64097 10.4028 7.68841 L 10.2119 7.73161 C 9.47396 7.89857 9.10501 7.98205 9.01723 8.26432 C 8.92945 8.54659 9.18097 8.84072 9.68403 9.42898 L 9.81418 9.58117 C 9.95713 9.74833 10.0286 9.83191 10.0608 9.93531 C 10.0929 10.0387 10.0821 10.1502 10.0605 10.3733 L 10.0408 10.5763 C 9.96476 11.3612 9.92674 11.7536 10.1565 11.9281 C 10.3864 12.1025 10.7318 11.9435 11.4227 11.6254 L 11.6014 11.5431 C 11.7978 11.4527 11.8959 11.4075 12 11.4075 C 12.1041 11.4075 12.2022 11.4527 12.3986 11.5431 L 12.5773 11.6254 C 13.2682 11.9435 13.6136 12.1025 13.8435 11.9281 C 14.0733 11.7536 14.0352 11.3612 13.9592 10.5763 L 13.9395 10.3733 C 13.9179 10.1502 13.9071 10.0387 13.9392 9.93531 C 13.9714 9.83191 14.0429 9.74833 14.1858 9.58118 L 14.316 9.42898 C 14.819 8.84072 15.0706 8.54659 14.9828 8.26432 C 14.895 7.98205 14.526 7.89857 13.7881 7.73161 L 13.5972 7.68841 C 13.3875 7.64097 13.2827 7.61725 13.1985 7.55334 C 13.1143 7.48944 13.0603 7.39258 12.9524 7.19887 L 12.8541 7.02251 C 12.4741 6.34084 12.2841 6 12 6 Z" stroke-linecap="round" />
</g>
<g transform="matrix(NaN NaN NaN NaN 0 0)"  >
<g style=""   >
</g>
</g>
<g transform="matrix(NaN NaN NaN NaN 0 0)"  >
<g style=""   >
</g>
</g>
<g transform="matrix(NaN NaN NaN NaN 0 0)"  >
<g style=""   >
</g>
</g>
<g transform="matrix(NaN NaN NaN NaN 0 0)"  >
<g style=""   >
</g>
</g>
</svg>