<?xml version="1.0" encoding="UTF-8" standalone="no" ?>
<!DOCTYPE svg PUBLIC "-//W3C//DTD SVG 1.1//EN" "http://www.w3.org/Graphics/SVG/1.1/DTD/svg11.dtd">
<svg xmlns="http://www.w3.org/2000/svg" xmlns:xlink="http://www.w3.org/1999/xlink" version="1.1" width="1080" height="1080" viewBox="0 0 1080 1080" xml:space="preserve">
<desc>Created with Fabric.js 5.2.4</desc>
<defs>
</defs>
<g transform="matrix(1 0 0 1 540 540)" id="717a896a-0388-4995-8be3-ffad8f85552e"  >
<rect style="stroke: none; stroke-width: 1; stroke-dasharray: none; stroke-linecap: butt; stroke-dashoffset: 0; stroke-linejoin: miter; stroke-miterlimit: 4; fill: rgb(255,255,255); fill-rule: nonzero; opacity: 1; visibility: hidden;" vector-effect="non-scaling-stroke"  x="-540" y="-540" rx="0" ry="0" width="1080" height="1080" />
</g>
<g transform="matrix(1 0 0 1 540 540)" id="4bfec0dc-80e2-4581-97bd-ecb6de73e5e8"  >
</g>
<g transform="matrix(33.33 0 0 33.33 540 594.16)"  >
<path style="stroke: none; stroke-width: 1; stroke-dasharray: none; stroke-linecap: butt; stroke-dashoffset: 0; stroke-linejoin: miter; stroke-miterlimit: 4; fill: rgb(2,61,107); fill-rule: evenodd; opacity: 1;" vector-effect="non-scaling-stroke"  transform=" translate(-11, -13.75)" d="M 1.81828 5.27239 C 2.22012 5.17193 2.62732 5.41625 2.72778 5.81809 L 3.10975 7.34596 C 3.71957 9.78523 5.64125 11.6764 8.0847 12.25 L 16.0002 12.25 C 18.0912 12.25 19.8512 13.8151 20.0956 15.8918 L 20.745 21.4124 C 20.7934 21.8237 20.4992 22.1965 20.0878 22.2449 C 19.6764 22.2933 19.3037 21.999 19.2553 21.5876 L 18.6058 16.0671 C 18.4504 14.7458 17.3306 13.75 16.0002 13.75 L 7.91785 13.75 L 7.83748 13.7321 C 4.80227 13.0576 2.40864 10.7262 1.65454 7.70976 L 1.27257 6.1819 C 1.17211 5.78005 1.41643 5.37285 1.81828 5.27239 Z" stroke-linecap="round" />
</g>
<g transform="matrix(33.33 0 0 33.33 573.33 731.66)"  >
<path style="stroke: none; stroke-width: 1; stroke-dasharray: none; stroke-linecap: butt; stroke-dashoffset: 0; stroke-linejoin: miter; stroke-miterlimit: 4; fill: rgb(173,189,227); fill-rule: nonzero; opacity: 0.5;" vector-effect="non-scaling-stroke"  transform=" translate(-12, -17.88)" d="M 8 13.75 L 8 18 C 8 19.8856 8 20.8284 8.58579 21.4142 C 9.17157 22 10.1144 22 12 22 C 13.8856 22 14.8284 22 15.4142 21.4142 C 16 20.8284 16 19.8856 16 18 L 16 13.75 L 8 13.75 Z" stroke-linecap="round" />
</g>
<g transform="matrix(33.33 0 0 33.33 573.33 335.83)"  >
<circle style="stroke: none; stroke-width: 1; stroke-dasharray: none; stroke-linecap: butt; stroke-dashoffset: 0; stroke-linejoin: miter; stroke-miterlimit: 4; fill: rgb(2,61,107); fill-rule: nonzero; opacity: 1;" vector-effect="non-scaling-stroke"  cx="0" cy="0" r="4" />
</g>
<g transform="matrix(NaN NaN NaN NaN 0 0)"  >
<g style=""   >
</g>
</g>
<g transform="matrix(NaN NaN NaN NaN 0 0)"  >
<g style=""   >
</g>
</g>
<g transform="matrix(NaN NaN NaN NaN 0 0)"  >
<g style=""   >
</g>
</g>
<g transform="matrix(NaN NaN NaN NaN 0 0)"  >
<g style=""   >
</g>
</g>
<g transform="matrix(NaN NaN NaN NaN 0 0)"  >
<g style=""   >
</g>
</g>
<g transform="matrix(NaN NaN NaN NaN 0 0)"  >
<g style=""   >
</g>
</g>
<g transform="matrix(NaN NaN NaN NaN 0 0)"  >
<g style=""   >
</g>
</g>
<g transform="matrix(NaN NaN NaN NaN 0 0)"  >
<g style=""   >
</g>
</g>
</svg>