<?xml version="1.0" encoding="UTF-8" standalone="no" ?>
<!DOCTYPE svg PUBLIC "-//W3C//DTD SVG 1.1//EN" "http://www.w3.org/Graphics/SVG/1.1/DTD/svg11.dtd">
<svg xmlns="http://www.w3.org/2000/svg" xmlns:xlink="http://www.w3.org/1999/xlink" version="1.1" width="1080" height="1080" viewBox="0 0 1080 1080" xml:space="preserve">
<desc>Created with Fabric.js 5.2.4</desc>
<defs>
</defs>
<g transform="matrix(1 0 0 1 540 540)" id="14a927c4-7e2d-4f03-a0f7-17343f162bf5"  >
<rect style="stroke: none; stroke-width: 1; stroke-dasharray: none; stroke-linecap: butt; stroke-dashoffset: 0; stroke-linejoin: miter; stroke-miterlimit: 4; fill: rgb(255,255,255); fill-rule: nonzero; opacity: 1; visibility: hidden;" vector-effect="non-scaling-stroke"  x="-540" y="-540" rx="0" ry="0" width="1080" height="1080" />
</g>
<g transform="matrix(1 0 0 1 540 540)" id="9088ffd1-5018-4b39-bc4c-b14cf760606d"  >
</g>
<g transform="matrix(33.33 0 0 33.33 600.63 478.55)"  >
<path style="stroke: none; stroke-width: 1; stroke-dasharray: none; stroke-linecap: butt; stroke-dashoffset: 0; stroke-linejoin: miter; stroke-miterlimit: 4; fill: rgb(2,61,107); fill-rule: evenodd; opacity: 1;" vector-effect="non-scaling-stroke"  transform=" translate(-13.82, -10.16)" d="M 14.4467 16.3769 L 20.2935 10.5476 C 21.1356 9.70811 21.5566 9.28836 21.7783 8.75458 C 22.0001 8.22081 22.0001 7.62719 22.0001 6.43996 L 22.0001 5.87277 C 22.0001 4.04713 22.0001 3.13431 21.4312 2.56715 C 20.8624 2 19.9468 2 18.1157 2 L 17.5468 2 C 16.356 2 15.7606 2 15.2252 2.2211 C 14.6898 2.4422 14.2688 2.86195 13.4268 3.70146 L 7.57991 9.53078 C 6.59599 10.5117 5.98591 11.12 5.74966 11.7075 C 5.67502 11.8931 5.6377 12.0767 5.6377 12.2692 C 5.6377 13.0713 6.2851 13.7168 7.57991 15.0077 L 7.75393 15.1812 L 9.79245 13.1123 C 10.0832 12.8172 10.558 12.8137 10.8531 13.1044 C 11.1481 13.3951 11.1516 13.87 10.8609 14.1651 L 8.8162 16.2403 L 8.95326 16.3769 C 10.2481 17.6679 10.8955 18.3133 11.7 18.3133 C 11.8777 18.3133 12.0478 18.2818 12.2189 18.2188 C 12.8222 17.9966 13.438 17.3826 14.4467 16.3769 Z M 17.1935 9.5312 C 16.435 10.2874 15.2053 10.2874 14.4468 9.5312 C 13.6883 8.775 13.6883 7.54895 14.4468 6.79274 C 15.2053 6.03653 16.435 6.03653 17.1935 6.79274 C 17.952 7.54895 17.952 8.775 17.1935 9.5312 Z" stroke-linecap="round" />
</g>
<g transform="matrix(33.33 0 0 33.33 323.9 400.53)"  >
<path style="stroke: none; stroke-width: 1; stroke-dasharray: none; stroke-linecap: butt; stroke-dashoffset: 0; stroke-linejoin: miter; stroke-miterlimit: 4; fill: rgb(173,189,227); fill-rule: nonzero; opacity: 0.5;" vector-effect="non-scaling-stroke"  transform=" translate(-5.52, -7.82)" d="M 9.03429 5.96305 L 6.49114 8.49856 C 6.02369 8.9646 5.59488 9.3921 5.25624 9.77856 C 5.03877 10.0267 4.82145 10.2984 4.63737 10.5985 L 4.61259 10.5738 C 4.56555 10.5269 4.54201 10.5034 4.51839 10.4805 C 4.07636 10.0516 3.55641 9.71062 2.98636 9.47575 C 2.9559 9.4632 2.92498 9.45095 2.86314 9.42645 L 2.48449 9.27641 C 1.97153 9.07315 1.83482 8.41279 2.22514 8.02365 C 3.34535 6.90684 4.69032 5.56594 5.33941 5.29662 C 5.91185 5.05911 6.53023 4.98008 7.12664 5.06822 C 7.67311 5.14898 8.19006 5.42968 9.03429 5.96305 Z" stroke-linecap="round" />
</g>
<g transform="matrix(33.33 0 0 33.33 678.91 755.45)"  >
<path style="stroke: none; stroke-width: 1; stroke-dasharray: none; stroke-linecap: butt; stroke-dashoffset: 0; stroke-linejoin: miter; stroke-miterlimit: 4; fill: rgb(173,189,227); fill-rule: nonzero; opacity: 0.5;" vector-effect="non-scaling-stroke"  transform=" translate(-16.17, -18.46)" d="M 13.3767 19.3132 C 13.5816 19.5212 13.7177 19.6681 13.8408 19.8251 C 14.0031 20.0322 14.1483 20.2522 14.2748 20.4829 C 14.4172 20.7426 14.5278 21.02 14.749 21.5748 C 14.929 22.0265 15.5272 22.1459 15.8746 21.7995 L 15.9586 21.7157 C 17.0788 20.5988 18.4237 19.2579 18.6938 18.6108 C 18.9321 18.04 19.0113 17.4235 18.9229 16.8289 C 18.8419 16.2841 18.5605 15.7688 18.0256 14.9273 L 15.474 17.4713 C 14.9959 17.9479 14.5576 18.385 14.1612 18.7273 C 13.9236 18.9325 13.6637 19.1376 13.3767 19.3132 Z" stroke-linecap="round" />
</g>
<g transform="matrix(NaN NaN NaN NaN 0 0)"  >
<g style=""   >
</g>
</g>
<g transform="matrix(NaN NaN NaN NaN 0 0)"  >
<g style=""   >
</g>
</g>
<g transform="matrix(NaN NaN NaN NaN 0 0)"  >
<g style=""   >
</g>
</g>
<g transform="matrix(NaN NaN NaN NaN 0 0)"  >
<g style=""   >
</g>
</g>
<g transform="matrix(NaN NaN NaN NaN 0 0)"  >
<g style=""   >
</g>
</g>
<g transform="matrix(NaN NaN NaN NaN 0 0)"  >
<g style=""   >
</g>
</g>
</svg>